<svg xmlns="http://www.w3.org/2000/svg" style="display: none;">
  <!-- Placeholder for 'settings_input_component' -->
  <symbol id="icon-settings_input_component" viewBox="0 0 24 24">
    <path fill="currentColor" d="M21 16.5c0 .38-.21.71-.53.88l-7.9 4.44c-.16.12-.36.18-.57.18-.21 0-.41-.06-.57-.18l-7.9-4.44A.991.991 0 0 1 3 16.5v-9c0-.38.21-.71.53-.88l7.9-4.44A.99.99 0 0 1 12 2c.21 0 .41.06.57.18l7.9 4.44c.32.17.53.5.53.88v9zM12 4.15 6.04 7.5 12 10.85l5.96-3.35L12 4.15zM5 15.91l6 3.38v-6.71L5 9.21v6.7zM13 19.29l6-3.38v-6.7l-6 3.38v6.7z"/>
  </symbol>
  
  <!-- Placeholder for 'account_tree' -->
  <symbol id="icon-account_tree" viewBox="0 0 24 24">
    <path fill="currentColor" d="M22 11V3h-7v3H9V3H2v8h7V8h2v10h4v3h7v-8h-7v3h-2V8h2v3z"/>
  </symbol>

  <!-- Placeholder for 'corporate_fare' -->
  <symbol id="icon-corporate_fare" viewBox="0 0 24 24">
     <path fill="currentColor" d="M12 7V3H2v18h20V7H12zM6 19H4v-2h2v2zm0-4H4v-2h2v2zm0-4H4V9h2v2zm0-4H4V5h2v2zm4 12H8v-2h2v2zm0-4H8v-2h2v2zm0-4H8V9h2v2zm0-4H8V5h2v2zm10 12h-8v-2h2v-2h-2v-2h2v-2h-2V9h8v10zm-2-8h-2v2h2v-2zm0 4h-2v2h2v-2z"/>
  </symbol>

  <!-- Generic Placeholder for others -->
  <symbol id="icon-assignment" viewBox="0 0 24 24"><path fill="currentColor" d="M19 3h-4.18C14.4 1.84 13.3 1 12 1c-1.3 0-2.4.84-2.82 2H5c-1.1 0-2 .9-2 2v14c0 1.1.9 2 2 2h14c1.1 0 2-.9 2-2V5c0-1.1-.9-2-2-2zm-7 0c.55 0 1 .45 1 1s-.45 1-1 1-1-.45-1-1 .45-1 1-1zm2 14H7v-2h7v2zm3-4H7v-2h10v2zm0-4H7V7h10v2z"/></symbol>
  <symbol id="icon-library_books" viewBox="0 0 24 24"><path fill="currentColor" d="M4 6H2v14c0 1.1.9 2 2 2h14v-2H4V6zm16-4H8c-1.1 0-2 .9-2 2v12c0 1.1.9 2 2 2h12c1.1 0 2-.9 2-2V4c0-1.1-.9-2-2-2zm-1 9H9V9h10v2zm-4 4H9v-2h6v2zm4-8H9V5h10v2z"/></symbol>
  <symbol id="icon-tune" viewBox="0 0 24 24"><path fill="currentColor" d="M3 17v2h6v-2H3zM3 5v2h10V5H3zm10 16v-2h8v-2h-8v-2h-2v6h2zM7 9v2H3v2h4v2h2V9H7zm14 4v-2H11v2h10zm-6-4h2V7h4V5h-4V3h-2v6z"/></symbol>
  <symbol id="icon-arrow_drop_down" viewBox="0 0 24 24"><path fill="currentColor" d="m7 10 5 5 5-5z"/></symbol>
  <symbol id="icon-construction" viewBox="0 0 24 24"><path fill="currentColor" d="M22.7 19l-9.1-9.1c.9-2.3.4-5-1.5-6.9-2-2-5-2.4-7.4-1.3L9 6 6 9 1.6 4.7C.4 7.1.9 10.1 2.9 12.1c1.9 1.9 4.6 2.4 6.9 1.5l9.1 9.1c.4.4 1 .4 1.4 0l2.3-2.3c.5-.4.5-1.1.1-1.4z"/></symbol>
  <symbol id="icon-notifications" viewBox="0 0 24 24"><path fill="currentColor" d="M12 22c1.1 0 2-.9 2-2h-4c0 1.1.9 2 2 2zm6-6v-5c0-3.07-1.63-5.64-4.5-6.32V4c0-.83-.67-1.5-1.5-1.5s-1.5.67-1.5 1.5v.68C7.64 5.36 6 7.92 6 11v5l-2 2v1h16v-1l-2-2zm-2 1H8v-6c0-2.48 1.51-4.5 4-4.5s4 2.02 4 4.5v6z"/></symbol>
  <symbol id="icon-search" viewBox="0 0 24 24"><path fill="currentColor" d="M15.5 14h-.79l-.28-.27C15.41 12.59 16 11.11 16 9.5 16 5.91 13.09 3 9.5 3S3 5.91 3 9.5 5.91 16 9.5 16c1.61 0 3.09-.59 4.23-1.57l.27.28v.79l5 4.99L20.49 19l-4.99-5zm-6 0C7.01 14 5 11.99 5 9.5S7.01 5 9.5 5 14 7.01 14 9.5 11.99 14 9.5 14z"/></symbol>
  <symbol id="icon-add" viewBox="0 0 24 24"><path fill="currentColor" d="M19 13h-6v6h-2v-6H5v-2h6V5h2v6h6v2z"/></symbol>
  <symbol id="icon-edit" viewBox="0 0 24 24"><path fill="currentColor" d="M3 17.25V21h3.75L17.81 9.94l-3.75-3.75L3 17.25zM20.71 7.04c.39-.39.39-1.02 0-1.41l-2.34-2.34c-.39-.39-1.02-.39-1.41 0l-1.83 1.83 3.75 3.75 1.83-1.83z"/></symbol>
  <symbol id="icon-delete" viewBox="0 0 24 24"><path fill="currentColor" d="M6 19c0 1.1.9 2 2 2h8c1.1 0 2-.9 2-2V7H6v12zM19 4h-3.5l-1-1h-5l-1 1H5v2h14V4z"/></symbol>
  <symbol id="icon-close" viewBox="0 0 24 24"><path fill="currentColor" d="M19 6.41 17.59 5 12 10.59 6.41 5 5 6.41 10.59 12 5 17.59 6.41 19 12 13.41 17.59 19 19 17.59 13.41 12z"/></symbol>
  <symbol id="icon-group" viewBox="0 0 24 24"><path fill="currentColor" d="M16 11c1.66 0 2.99-1.34 2.99-3S17.66 5 16 5c-1.66 0-3 1.34-3 3s1.34 3 3 3zm-8 0c1.66 0 2.99-1.34 2.99-3S9.66 5 8 5C6.34 5 5 6.34 5 8s1.34 3 3 3zm0 2c-2.33 0-7 1.17-7 3.5V19h14v-2.5c0-2.33-4.67-3.5-7-3.5zm8 0c-.29 0-.62.02-.97.05 1.16.84 1.97 1.97 1.97 3.45V19h6v-2.5c0-2.33-4.67-3.5-7-3.5z"/></symbol>
  <symbol id="icon-admin_panel_settings" viewBox="0 0 24 24"><path fill="currentColor" d="M17 11c.34 0 .67.04 1 .09V6.27L10.5 3 3 6.27v4.91c0 4.54 3.2 8.79 7.5 9.82.55-.13 1.08-.32 1.6-.55-.69-.98-1.1-2.17-1.1-3.45 0-3.31 2.69-6 6-6z"/><path fill="currentColor" d="M17 13c-2.21 0-4 1.79-4 4s1.79 4 4 4 4-1.79 4-4-1.79-4-4-4zm0 1.38c.62 0 1.12.51 1.12 1.12s-.51 1.12-1.12 1.12-1.12-.51-1.12-1.12.51-1.12 1.12-1.12zm0 5.37c-1.31 0-2.42-.55-3.19-1.4.05-1.06 2.13-1.64 3.19-1.64s3.13.57 3.19 1.64c-.77.85-1.88 1.4-3.19 1.4z"/></symbol>
  <symbol id="icon-book" viewBox="0 0 24 24"><path fill="currentColor" d="M18 2H6c-1.1 0-2 .9-2 2v16c0 1.1.9 2 2 2h12c1.1 0 2-.9 2-2V4c0-1.1-.9-2-2-2zM6 4h5v8l-2.5-1.5L6 12V4z"/></symbol>
  <symbol id="icon-architecture" viewBox="0 0 24 24"><path fill="currentColor" d="M6.36 18.78L6.61 21l1.62-1.54 2.77-7.6c-.68-.17-1.28-.51-1.77-.98L6.36 18.78zM14.53 9.92h-1.09l-.57-2.02-3.17 8.73 1.25-1.19 1.65 1.57.87-3.13 1.57 1.52.92-2.92-1.43-2.56zM22 6.55c-.24-1.11-2.61-4.49-2.66-4.55l-2.07.56C17.43 3.03 18.9 4.8 19.34 6l-3.32.95-.9-3.26-2.07.56 1.32 4.79L8.13 6.94l.79 2.89c.81-.36 1.73-.39 2.58-.08l.3.11 3.58 12.92 2.07-.58-1.52-5.49 4.81-1.34.82 2.97 2.07-.58-1.63-11.21z"/></symbol>
  <symbol id="icon-query_stats" viewBox="0 0 24 24"><path fill="currentColor" d="M11.99 18.54l-4.2 4.2c-.78.78-2.05.78-2.83 0l-4.2-4.2c-.78-.78-.78-2.05 0-2.83l4.2-4.2c.79-.79 2.05-.79 2.83 0l4.2 4.2c.78.79.78 2.05 0 2.83zM18.5 4h-6v11h2V6h4v9h2V6c0-1.1-.9-2-2-2z"/></symbol>
  <symbol id="icon-check_circle" viewBox="0 0 24 24"><path fill="currentColor" d="M12 2C6.48 2 2 6.48 2 12s4.48 10 10 10 10-4.48 10-10S17.52 2 12 2zm-2 15l-5-5 1.41-1.41L10 14.17l7.59-7.59L19 8l-9 9z"/></symbol>
  <symbol id="icon-location_on" viewBox="0 0 24 24"><path fill="currentColor" d="M12 2C8.13 2 5 5.13 5 9c0 5.25 7 13 7 13s7-7.75 7-13c0-3.87-3.13-7-7-7zm0 9.5c-1.38 0-2.5-1.12-2.5-2.5s1.12-2.5 2.5-2.5 2.5 1.12 2.5 2.5-1.12 2.5-2.5 2.5z"/></symbol>
  <symbol id="icon-polyline" viewBox="0 0 24 24"><path fill="currentColor" d="M15 16v1.26l-6-3v-3.17L11.7 8H16V2h-6v4.9L7.3 10H3v6h5l7 3.5V22h6v-6z"/></symbol>
  <symbol id="icon-placeholder" viewBox="0 0 24 24">
    <path fill="currentColor" d="M4 4h16v16H4z"/>
    <path fill="currentColor" d="M7 7h10v10H7z" opacity="0.35"/>
  </symbol>
</svg>
